Coordinates
version=1
nRows=49
nColumns=12
inDegrees=yes

Units are S.I. units (second, meters, Newtons, ...)
Angles are in degrees

endheader
time	SC_y	SC_z	SC_x	AC_y	AC_z	AC_x	GH_y	GH_z	GH_yy	EL_x	PS_y
       0.0              -43.19           32.8          80.15           35.7         -19.14         -6.806           25.0         -10.73         -137.4          120.4          125.7
   0.04239              -43.19          32.79          80.14           35.7         -19.14         -6.806          24.99         -10.73         -137.4          120.4          125.6
   0.08479              -43.19          32.79          80.13          35.71         -19.14         -6.807          24.98         -10.72         -137.4          120.3          125.6
    0.1272              -43.19          32.78          80.12          35.71         -19.13         -6.808          24.97         -10.72         -137.3          120.3          125.6
    0.1696               -43.2          32.78          80.11          35.72         -19.13         -6.808          24.96         -10.71         -137.3          120.3          125.6
     0.212               -43.2          32.77           80.1          35.72         -19.12         -6.809          24.95         -10.71         -137.2          120.3          125.6
    0.2544               -43.2          32.77          80.08          35.73         -19.12          -6.81          24.94          -10.7         -137.2          120.3          125.6
    0.2968               -43.2          32.76          80.07          35.74         -19.11         -6.811          24.92         -10.69         -137.1          120.3          125.6
    0.3392              -43.21          32.76          80.05          35.74         -19.11         -6.812          24.91         -10.69         -137.1          120.2          125.5
    0.3815              -43.21          32.75          80.04          35.75          -19.1         -6.813           24.9         -10.68         -137.0          120.2          125.5
    0.4239              -43.22          32.74          80.02          35.76         -19.09         -6.814          24.88         -10.67         -136.9          120.2          125.5
    0.4663              -43.22          32.73           80.0          35.77         -19.09         -6.815          24.86         -10.66         -136.9          120.2          125.5
    0.5087              -43.22          32.72          79.98          35.78         -19.08         -6.816          24.85         -10.65         -136.8          120.1          125.4
    0.5511              -43.23          32.71          79.95          35.79         -19.07         -6.817          24.83         -10.64         -136.7          120.1          125.4
    0.5935              -43.23           32.7          79.93           35.8         -19.06         -6.819           24.8         -10.63         -136.6          120.1          125.4
    0.6359              -43.24          32.69           79.9          35.81         -19.05          -6.82          24.78         -10.62         -136.5          120.0          125.3
    0.6783              -43.25          32.68          79.87          35.83         -19.04         -6.822          24.76         -10.61         -136.4          120.0          125.3
    0.7207              -43.25          32.67          79.84          35.84         -19.03         -6.824          24.73          -10.6         -136.3          120.0          125.3
    0.7631              -43.26          32.65          79.81          35.86         -19.02         -6.826           24.7         -10.58         -136.2          119.9          125.2
    0.8055              -43.27          32.64          79.77          35.87          -19.0         -6.828          24.67         -10.56         -136.1          119.9          125.2
    0.8479              -43.28          32.62          79.73          35.89         -18.99          -6.83          24.63         -10.54         -135.9          119.8          125.1
    0.8903              -43.29           32.6          79.68          35.91         -18.97         -6.833          24.59         -10.52         -135.8          119.8          125.1
    0.9327               -43.3          32.58          79.63          35.94         -18.95         -6.836          24.55          -10.5         -135.6          119.7          125.0
    0.9751              -43.31          32.56          79.57          35.96         -18.93         -6.839           24.5         -10.48         -135.4          119.6          124.9
     1.017              -43.32          32.53          79.51          35.99         -18.91         -6.843          24.44         -10.45         -135.2          119.5          124.9
      1.06              -43.34           32.5          79.44          36.02         -18.88         -6.847          24.38         -10.42         -134.9          119.5          124.8
     1.102              -43.35          32.47          79.36          36.06         -18.85         -6.851          24.31         -10.39         -134.6          119.4          124.7
     1.145              -43.37          32.44          79.28           36.1         -18.82         -6.856          24.24         -10.35         -134.3          119.2          124.6
     1.187              -43.39           32.4          79.18          36.15         -18.78         -6.862          24.15          -10.3         -134.0          119.1          124.4
     1.229              -43.42          32.35          79.06           36.2         -18.74         -6.869          24.05         -10.25         -133.6          119.0          124.3
     1.272              -43.45           32.3          78.93          36.26          -18.7         -6.876          23.94          -10.2         -133.1          118.8          124.1
     1.314              -43.48          32.24          78.79          36.32         -18.64         -6.885          23.82         -10.13         -132.6          118.6          123.9
     1.357              -43.51          32.17          78.62           36.4         -18.58         -6.894          23.67         -10.06         -132.0          118.4          123.7
     1.399              -43.55          32.09          78.42          36.49         -18.51         -6.906           23.5         -9.972         -131.3          118.2          123.5
     1.441               -43.6          31.99          78.19           36.6         -18.42         -6.919           23.3          -9.87         -130.5          117.9          123.2
     1.484              -43.66          31.88          77.91          36.73         -18.32         -6.935          23.06          -9.75         -129.5          117.5          122.9
     1.526              -43.73          31.75          77.59          36.88          -18.2         -6.954          22.78         -9.608         -128.4          117.1          122.5
     1.569              -43.81          31.59           77.2          37.05         -18.06         -6.976          22.44         -9.437         -127.0          116.6          122.0
     1.611              -43.91          31.39          76.73          37.27         -17.89         -7.003          22.03         -9.231         -125.4          116.0          121.4
     1.653              -44.04          31.16          76.15          37.54         -17.68         -7.036          21.54         -8.979         -123.3          115.3          120.7
     1.696              -44.19          30.87          75.44          37.86         -17.42         -7.077          20.92         -8.668         -120.8          114.4          119.8
     1.738              -44.37           30.5          74.56          38.27         -17.09         -7.128          20.16          -8.28         -117.7          113.2          118.7
     1.781              -44.61          30.04          73.44          38.78         -16.68         -7.192          19.19         -7.791         -113.8          111.8          117.3
     1.823              -44.91          29.46          72.03          39.43         -16.16         -7.274          17.96          -7.17         -108.8          110.0          115.5
     1.865               -45.3          28.72          70.21          40.27          -15.5         -7.378          16.39         -6.375         -102.4          107.7          113.2
     1.908              -45.79          27.76          67.88          41.34         -14.65         -7.512          14.38         -5.354         -94.21          104.7          110.3
      1.95              -46.42          26.54          64.91          42.71         -13.56         -7.684           11.8          -4.05         -83.74          100.9          106.6
     1.993              -47.21          25.01          61.17          44.43         -12.19         -7.899          8.564         -2.411         -70.57          96.17          101.9
     2.035              -48.18          23.14          56.61          46.52         -10.52         -8.161          4.619        -0.4138         -54.52          90.37           96.2
